<?xml version="1.0" encoding="utf-8"?>
<!-- Generator: Adobe Illustrator 26.5.0, SVG Export Plug-In . SVG Version: 6.00 Build 0)  -->
<svg version="1.1" id="Capa_1" xmlns="http://www.w3.org/2000/svg" xmlns:xlink="http://www.w3.org/1999/xlink" x="0px" y="0px"
	 viewBox="0 0 50.3 44.7" style="enable-background:new 0 0 50.3 44.7;" xml:space="preserve">
<style type="text/css">
	.st0{fill:#FFFFFF;}
</style>
<path class="st0" d="M40.5,36.3c-2.3,0-4.2,1.9-4.2,4.2c0,2.3,1.9,4.2,4.2,4.2c2.3,0,4.2-1.9,4.2-4.2C44.7,38.2,42.8,36.3,40.5,36.3
	z M15.4,36.3c-2.3,0-4.2,1.9-4.2,4.2c0,2.3,1.9,4.2,4.2,4.2s4.2-1.9,4.2-4.2C19.6,38.2,17.7,36.3,15.4,36.3z M49.7,3.9
	c-0.5-0.7-1.3-1.1-2.2-1.1H10.6l-0.2-1.1C10.3,0.7,9.4,0,8.4,0H2.1C0.9,0,0,0.9,0,2.1l0,0c0,1.2,0.9,2.1,2.1,2.1h4.6l5.3,27.6
	c0.2,1,1.1,1.7,2.1,1.7h28.6c1.2,0,2.1-0.9,2.1-2.1l0,0c0-1.2-0.9-2.1-2.1-2.1H15.7l-0.8-4.2h27.8c1.2,0,2.3-0.8,2.7-2l4.8-16.8
	C50.4,5.5,50.3,4.6,49.7,3.9z"/>
</svg>
