<?xml version="1.0" encoding="utf-8"?>
<!-- Generator: Adobe Illustrator 26.5.0, SVG Export Plug-In . SVG Version: 6.00 Build 0)  -->
<svg version="1.1" id="Capa_1" xmlns="http://www.w3.org/2000/svg" xmlns:xlink="http://www.w3.org/1999/xlink" x="0px" y="0px"
	 viewBox="0 0 780.7 636.5" style="enable-background:new 0 0 780.7 636.5;" xml:space="preserve">
<style type="text/css">
	.st0{fill:#FFFFFF;}
	.st1{fill:#282929;}
</style>
<g>
	<path class="st0" d="M572.8,32.2c0.3-0.4,0.7-0.7,1.1-0.1c0,0.1-0.3,0.4-0.5,0.6C573.2,32.6,573,32.4,572.8,32.2z"/>
	<g>
		<path class="st1" d="M321,13.9c0.4-1.8,1.5-3.1,2.8-4.2c6.5-1.6,10.6,2,14.5,6.4c2.5,2.9,4.8,5.8,7.2,8.7c1.7,2.3,3.4,4.5,5.8,6.2
			c8.8,10,18.5,19,28.8,27.4c5.6,5.7,12,10.5,18.6,14.9c11,7.4,20.5,16.4,27.6,27.6c1.1,1.7,3,3.7,1.5,5.8c-1.3,1.8-3.4,0.4-5.1,0.3
			c-6-0.3-11.9,0.6-17.7,2.1c-13.4,3.4-26.4,7.7-37.9,15.6c-0.4,0.2-0.8,0.4-1.2,0.6c-0.4,0.5-0.8,0.9-1.3,1.4
			c0.9,0.7,1.4,0.2,1.9-0.5c0.4-0.1,0.9-0.3,1.3-0.5c26.3-13.6,54.7-17.2,83.8-16.9c9.3,0.1,18.6,1.2,27.9,1.8
			c14.2,1,27.5-2.8,39.6-9.9c28.2-16.6,55.1-34.8,77.8-58.8c11.4-12,24.5-22,39.5-29.3c3.2-1.5,6.4-2.8,9.9-3.4
			c8.2-1.4,13.4,4,11.4,12.1c-1.8,7.4-3.5,14.9-4.4,22.5c-2,16.1-0.3,32.3,0.4,48.4c1,22.9,3.2,45.9,0.7,68.8
			c-0.7,6.4,0.7,11.8,6.4,15.7c1.9,1.3,3.4,3.2,4.9,5c2,2.4,3.1,4.7-0.7,6.8c-3.6,2-0.7,4,0.7,5.4c11.7,12.2,21.2,26,29.2,40.9
			c3.8,7,7,14.3,8.7,22.2c0.4,2,1.2,4.1-0.9,5.5c-1.8,1.2-3-0.6-4.4-1.3c-1.4-0.7-2.8-2.3-4.5-1.2c-2,1.3-0.9,3.3-0.4,5
			c2.4,8,4.1,16.1,4.9,24.4c0.4,4.1,1.9,4.7,5.5,2.9c19.3-10,38.2-20.9,56.5-32.8c2.5-1.6,6.8-5.3,7.9-3.2c1.7,3.1-3.3,4.8-5.8,6.5
			c-18,12.7-36.8,24-56.2,34.3c-5.1,2.7-6.8,6.1-6.5,12c0.8,17.7-1.3,35.2-4.8,52.6c-1.1,5.4-0.5,6.1,5.1,6c6.7-0.2,13.3-0.5,20-0.5
			c1.8,0,4.8-0.4,4.9,2.1c0,2-2.8,1.8-4.6,1.9c-7.5,0.6-14.9,1.2-22.4,1.5c-4.2,0.1-6.3,1.8-7.5,5.8c-3.5,12-8.7,23.4-15.8,33.8
			c-0.9,1.4-2,2.6-3.1,3.9c-1,1.2-2.4,1.2-3.7,0.8c-1.5-0.5-1.7-1.8-1.7-3.3c0.1-1.9,1.4-4.6-1-5.4c-2.6-0.9-3.3,2.2-4.5,3.8
			c-4.1,5.5-8.2,11-13.3,15.5c-2.5,2.2-4.9,3.5-7.4-0.2c-1.7-2.5-4.2-2.7-6.4-0.6c-6.5,6-13,11.9-19.2,18.2
			c-2.8,2.8-1.9,5.7,2.2,7.9c11.5,6.3,22.8,13.1,33.1,21.3c10,7.9,19,16.7,25.4,27.9c8.8,15.4,8.7,30.7-0.8,45.8
			c-11.4,18-27.8,30.3-45.9,40.6c-32.1,18.1-67,28.3-102.9,35.4c-42.4,8.5-85.3,12.2-128.6,12.4c-80.3,0.4-159.5-8.2-237.3-28.5
			c-34.6-9-68-21.1-98.2-40.8c-12.2-8-23.4-17.2-32.2-28.8C8.3,511,11.3,480.7,37.3,458c16.1-14,35.2-22.5,55-29.7
			c34.6-12.6,70.4-19.9,106.7-25.1c5.4-0.8,10.9-1.3,16.3-2.1c4.8-0.7,7-4.5,5.2-9c-3.2-8.1-5.2-16.5-5.4-25.2
			c-0.1-3.1-1.3-5.3-3.7-7.2c-23.9-19.2-48-38-75.7-51.7c-1.2-0.6-3.5-1.2-2.8-2.8c0.8-1.9,2.8-0.8,4.3-0.2
			c16.9,6.8,32.3,16.4,47.2,26.7c9.4,6.6,18.6,13.5,27.7,20.5c2.9,2.3,3.7,1.8,4.8-1.7c1.3-4.1,0.7-6.9-2.3-10.2
			c-27.9-30.6-52.6-63.6-70-101.5c-3.9-8.6-7.2-17.5-9.5-26.8c-0.3-1.1-0.7-2.3-0.7-3.4c0-1.2-0.9-3,1-3.3c1.3-0.2,1.6,1.4,2,2.5
			c15.4,49.3,46.6,88.5,79.9,126.4c2.6,2.9,4,3.1,6.1-0.6c6.6-11.7,16.3-20.2,28.8-25.1c4.2-1.7,5.1-4.3,4.6-8.6
			c-4.8-43,3.1-83.2,26.7-119.8c6.2-9.7,13.1-19,21.9-26.5c10.7-9.2,16.3-20.4,18.6-34.2c3.4-20.5,3.1-40.7-0.6-61
			C322.6,43.5,325.2,28.5,321,13.9z M533.9,561.3c0.3,0.4,0.5,0.8,0.8,1.2c-12,8.5-26.2,12.4-39.8,17.6c18.1-2.2,35.4-7.2,52.4-13.5
			c-13.5,10-29.3,14.6-44.8,19.9c18.8-2.1,36.8-7.3,54.3-14.2c0.3,0.4,0.5,0.8,0.8,1.2c-13.2,9.1-28.6,13.2-43.4,18.8
			c18.6-2.4,36.3-7.9,53.6-14.6c0.4,0.3,0.8,0.7,1.2,1c-4.5,3.4-9.6,5.9-14.8,8.2c-5,2.2-10.1,4.2-15.2,6.1
			c-5,1.8-10.2,3.4-15.3,5.1c0.1,0.4,0.3,0.8,0.4,1.2c19.4-3.6,38.3-9.1,56.5-16.8c0.3,0.4,0.5,0.7,0.8,1.1
			c-4.8,3.7-10.1,6.3-15.6,8.7c-5.5,2.3-11,4.6-16.7,6.6c-5.4,2-10.9,3.6-16.3,5.3c1,1,1.6,1.1,2.2,0.9c30.3-7,59.7-16.3,86.7-32.1
			c14.5-8.5,27.9-18.3,37.1-32.7c3.6-5.7,6.2-11.7,6.5-18.6c0.6-14-7-23.8-15.9-33.1c-0.7-0.7-1.3-2-3.2-1
			c4.5,6.6,10.1,12.5,11.5,20.6c1.4,8.2-0.2,15.6-6.4,21.7c2-7.1,3.2-14.2,0.9-21.5c-2.3-7.3-8.1-14.9-12.6-16.6
			c10,16.9,10.7,30.9,1.7,36.5c2.6-19.7,1-26-9-35.2c-0.5-0.5-1.1-1-1.6-1.6c-0.9,1.2,0.3,1.6,0.8,2.3c9.1,12.1,7.9,27.3-0.9,33.4
			c5.6-13.8,1.7-24.9-7.9-34.5c-0.5-0.3-0.9-0.7-1.4-1c-0.5,0.8-0.3,1.4,0.6,1.7c1,1.9,2.1,3.8,3,5.7c3.7,8,4.3,15.9-0.4,23.8
			c-0.7,1.1-1.1,2.8-3.1,2.3c3.8-14,1.5-23.4-8-32.2c-0.2-0.8-0.8-1.2-1.4-0.8c-0.7,0.6,0.2,1,0.5,1.5c2.7,4.6,4.8,9.5,5.5,14.9
			c0.7,6.1-1.8,12.6-5.7,15.1c2.2-16.8-0.5-25.9-10.4-32.4c2.9,5.5,5.8,10.3,6.3,16.1c0.6,7-1.5,12.8-6,15.3
			c5-13.3,0.4-23.4-9.6-31.8c1.9,5.2,5.1,9.9,5.6,15.6c0.6,6.7-1.4,12.3-5.3,14.6c2.1-15.1-1.7-26.6-10.1-29.5
			c5.6,9.5,8.6,18.8,0.8,28.3c0.4-5.4,1.7-10.7-0.2-16.1c-2-5.8-6-11-9.8-12.5c6.6,14.4,6.7,23.5,0.1,26.8c2.7-13-1-23.8-9.2-27.2
			c6.5,15.2,6.6,21.3-0.1,26.7c3.8-11.7,0-20.2-8.6-27c1.3,4.4,3.9,8.3,4.3,12.9c0.4,4.7-0.4,9-4.5,13.1c1.4-14.7-2.3-24.3-9.7-26
			c5.9,13,6,19.6,0.3,23.5c1.2-12.8-1.7-20.6-9.7-23.9c4.4,7.7,7.4,15.2,1.2,23.7c-1.2-16.6-2.6-19.9-9-23.4
			c4.8,14.2,4.8,16.8,0.1,21.1c-1.2-14.4-3.2-19.1-8.7-20.7c4.4,12.5,4.4,16-0.3,19.5c0.3-11.8-2.8-18.6-8.9-19.8
			c5,10.1,5.2,15.2,0.5,18.3c-0.3-10.9-2.7-15.9-9.7-18.8c3.5,6.2,5.7,12,0.9,18.9c-1.7-13.6-3.8-17.7-9.1-18.4
			c4.5,8.8,4.6,13,0.3,16.1c-1.3-11.4-3.6-15.5-9.2-16.2c2.6,4.9,5.1,9.8,0.6,15.1c-0.4-6.6-2-12.3-9.4-16.2c1.3,2.8,2.2,4.4,3,6.2
			c0.8,1.9,0.8,3.9,0.5,5.9c-0.2,1.2-0.4,2.7-1.7,2.7c-1.7,0.1-1.2-1.6-1.3-2.7c-0.9-5.8-4.6-10.2-9.2-11.1c4.6,7.8,3.9,14-3,21.6
			c-9.3,10.2-21.5,15.4-34.5,19c-1,0.3-2.5-0.1-2.4,1.9c10.8-0.6,20.6-5,31-7.2c-6.9,6.5-15.8,8.7-24.2,11.9
			c12.1-0.1,23.4-3.6,35-6.3c-8.1,6.2-17.8,8.7-27,12.3c13-0.7,25.5-4,37.9-7.4c-8.8,6.7-19.3,9.5-29.4,13.3
			c14-0.9,27.3-4.6,40.6-8.4c-9.7,7.3-21.3,10.4-32.5,14.5c15-1.1,29.3-5,43.6-9.5c-10.5,7.8-23,11.1-35,15.5
			c15.8-1.5,30.8-5.7,45.8-10.5c-11.3,8.4-24.5,12.2-37.5,16.8c16.8-1.5,32.7-6.4,48.6-11.7c-11.6,8.7-25.2,12.8-38.5,17.6
			C502.5,572.3,518.3,567.4,533.9,561.3z M254.1,328.2c1.8-2.9,5.9-0.2,6.5-3.3c0.5-2.9,0.2-6.2-2.2-8.3c-2.1-1.9-4.4-0.6-6.4,0.7
			c-9,6.2-15.6,14.3-20.2,24.2c-1.7,3.7-1.4,6.5,1.7,9.3c6.6,5.8,13.2,11.8,19.7,17.7c1.2,1.1,2.5,2.2,3.6,3.5
			c0.8,0.9,1.2,2,0.4,3.2c-0.8,1.1-2,1.3-3.1,0.7c-1.6-0.8-3.3-1.7-4.7-2.8c-5.4-4.5-10.6-9.1-16.1-13.5c-1.5-1.2-3-4.7-4.9-3
			c-2.2,1.9-1.6,5.6-0.2,8.3c0.7,1.4,2.2,2.4,3.4,3.6c3.3,3.1,6.6,6.1,9.8,9.3c1,1,1.5,2.3,0.5,3.6c-1.1,1.5-2.6,1.5-4,0.6
			c-1.8-1.2-3.3-2.8-5.1-4c-1.2-0.8-2.1-3.3-3.9-2c-1.4,1,0.1,2.8,0.5,4.2c3.9,14.3,12.4,25.7,23.4,35.3c20.6,18,44.4,29.2,72,30.9
			c7,0.4,7.5-0.7,4.7-6.9c-0.9-2.1-2.4-4.6,0.5-6.2c2.6-1.5,4.4,0.7,5.8,2.5c5.7,7.7,13.5,12.2,22.2,15.6c8.6,3.3,17.6,5.3,26.7,5.9
			c62.8,4.3,119.8-12.5,171.9-47.3c1.2-0.8,3.1-1.5,2.8-3.2c-0.4-2-2.6-1.9-4.1-2.1c-3.9-0.6-7.9-1-11.9-1.4c-1.5-0.2-3.5,0-3.8-1.7
			c-0.3-2.2,2-2.2,3.5-2.8c0.3-0.1,0.6-0.2,1-0.3c19.7-3.4,36.1,2.6,49.6,17c0.9,0.9,2.5,2,1.6,3.3c-1.1,1.7-2.7,0.3-3.9-0.4
			c-5.3-3.1-10.6-6.2-16.4-8.3c-3.6-1.3-7.2-1.5-10.4,0.9c-3.6,2.7-7.2,5.5-10.5,8.4c-3.6,3.2-3.1,6.2,1.5,7.7
			c11,3.8,21.9,7.8,32.6,12.4c3.3,1.4,6.4,1,8.8-1.4c14.1-14.7,23-31.7,23.3-52.5c0.1-3.4-1.6-5-4.9-4.7c-4.5,0.4-9,0.7-13.4,1.3
			c-38.3,4.8-76.6,10.1-114.1,19.8c-3.1,0.8-7.6,2.8-8.8-1.3c-1.1-4,3.7-4.6,6.8-5.5c26.1-7.7,52.8-12.2,79.7-15.8
			c15.5-2.1,31.1-3.6,46.6-5.4c5.8-0.7,6.5-1.9,4.3-7.5c-1.7-4.5-4-8.8-7.1-12.5c-5-6-8.5-6.8-15.8-4
			c-47.4,18.2-95.5,34.1-145.2,44.8c-3.4,0.7-6.8,1.7-10.3,0.9c-1.2-0.3-2.3-0.7-2.7-1.9c-0.3-1.3,0.7-2.2,1.7-2.8
			c2.2-1.5,4.8-2.1,7.4-2.7c48.2-11,95.2-26.1,141.5-43.5c1.6-0.6,4.3-0.7,4.3-2.7c0.1-2.1-2.6-2.2-4.2-2.7
			c-21.6-7-42.9-6.2-63.8,2.8c-2.5,1.1-6.7,1.5-6.6,5.1c0.1,3.4,4.3,2.9,6.6,4.3c0.1,0.1,0.3,0.1,0.5,0.2c1.4,0.8,3.5,1.5,3.1,3.4
			c-0.5,2.1-2.7,2.2-4.6,1.9c-1-0.1-2-0.3-3-0.5c-30.2-7.3-60.6-8.3-91.3-3.8c-24.5,3.6-47.5,11.5-67.4,26.9
			c-11.9,9.2-21,20.4-24.5,35.4c-1.5,6.2-1.4,6.2-6.3,2.7c-0.4-0.3-0.9-0.5-1.3-0.7c-17.9-10.5-27.3-32.6-22-52.9
			c1-4.1,0.1-6.5-2.7-9.2c-7.5-6.9-15.8-12.6-24.9-17.4C270.4,332.9,262.6,329.9,254.1,328.2z M267.4,293.8c0.3,4.9,1,12.6,1.3,20.2
			c0.4,8.9,2.8,16,13.2,17.1c0.2,0,0.3,0.1,0.5,0.2c2.6,0.8,5.1,3.7,7.8,1.4c2.6-2.3,0.2-5.4-0.2-8c-1.3-6.9-2.5-13.8-3.1-20.7
			c-0.1-1.7-0.4-3.9,1.5-4.9c1.6-0.9,2.8,0.6,4,1.2c1.6,0.8,3.2,1.7,4.9,2.5c0.9,0.4,2,0.9,2.8,0c0.9-1,0-1.8-0.6-2.6
			c-2.5-3.5-5-7.1-7.5-10.5c-4.3-5.9-5.8-12.7-5.4-19.8c0.4-8.2,1.7-16.2,5.8-23.5c1.5-2.6,3.5-4.7,6.8-4.1c3.4,0.6,4.1,3.5,4.3,6.5
			c0.1,0.8,0.1,1.7,0.1,2.5c1.4,29,4.2,57.8,10.6,86.2c2.1,9.4,2.2,9.4,11.7,7.9c0.3,0,0.7-0.1,1-0.1c15.8-2.4,30.1,1.3,42.9,10.7
			c2.8,2.1,5.6,3.6,9.2,1.8c6.9-3.4,13.9-6.3,21.2-8.7c4.7-1.6,7-4.8,7.5-10c1-10.4,2.3-20.9,4.8-31.1c1.2-5.1,2.9-5.7,7.2-2.8
			c2.9,2,5.9,3.8,8.9,5.6c1,0.6,2.1,1.1,3.2,0c1.2-1.2,0.1-2.2-0.4-3.1c-2.8-4.7-5.2-9.7-7.5-14.6c-2.8-5.7-3.3-11.5-1.2-17.4
			c3.7-10.8,9.5-20.5,16.4-29.5c1-1.3,2.3-2.4,3.8-3.2c2.4-1.4,5-2.1,7.5-0.4c2.7,1.8,3.4,4.5,2.8,7.5c-0.6,3.1-1.4,6.2-2.2,9.2
			c-6.1,25.1-11.2,50.4-15.3,75.8c-0.8,5.3,0.4,6.7,5.3,6.2c15-1.6,29.9-0.8,44.8,1.1c10.9,1.4,12.2,1,17.2-9
			c15.5-30.9,27.5-62.8,28.9-97.8c0.7-17.4-1.3-34.6-9.8-50.4c-6.2-11.7-15.9-18.4-29.2-19.9c-10.6-1.2-20.6,0.9-30,5.6
			c-20.4,10.4-34.5,27.1-44.5,47.1c-14.8,29.6-25.9,60.5-33,92.9c-0.5,2.1-0.6,5-3.4,4.8c-2.8-0.1-2.5-3.1-2.6-5.1
			c-0.7-9.5-0.6-19-0.2-28.5c0.1-1.9,0.4-4-2-4.5c-2.4-0.5-3,1.8-3.4,3.5c-1.1,5-2,10.1-3,15.2c-0.3,1.5,0,4-2.1,3.9
			c-2-0.1-1.9-2.5-2-4.1c-0.6-7.8-0.6-15.6-0.2-23.5c0.1-1.7,0.3-3.7-1.9-4c-2.1-0.2-2.5,1.9-2.8,3.5c-0.9,4.6-1.6,9.2-2.4,13.8
			c-0.2,1.3-0.3,3-1.9,3.2c-1.6,0.2-2-1.5-2.2-2.8c-0.9-4.4-1.7-8.8-2.5-13.2c-0.3-1.5,0.1-4.1-1.9-4c-2.2,0.1-2.1,2.6-2.2,4.4
			c-0.3,6.1-0.5,12.3-0.9,18.5c-0.1,1.9,0.8,4.9-1.4,5.3c-2.7,0.5-2.8-2.8-3.5-4.6c-1.3-3.4-2.2-7-3.2-10.5c-0.4-1.3-0.5-3.1-2-3.1
			c-1.9,0.1-1.8,2-1.8,3.5c0.3,7.1,0.7,14.3,0.9,21.5c0.1,2.8,2.5,7.3-0.8,7.9c-3.4,0.6-3.6-4.5-4.3-7.4
			c-7.2-28.9-9.2-58.1-5.8-87.7c1.2-10.7,4.4-21.2,3.9-32.2c-0.3-6.1-1.6-12-7.6-14.7c-5.9-2.6-11.1,0.2-15.5,4.1
			c-6.8,6.1-11.7,13.6-15.8,21.6C275.3,225.4,268,257.4,267.4,293.8z M133.8,507.2c-0.1,0.5-0.4,0.9-0.3,1.1c0.6,1.2,1.2,2.3,2,3.4
			c5.8,8.7,13.4,15.6,22,21.5c0.8,0.6,2.5,1,1.5,2.5c-0.6,0.9-1.9,0.4-2.8,0c-1.1-0.5-2.1-1-3.1-1.5c-11-5.8-20.6-13.5-29.1-22.5
			c-1.1-1.2-1.9-3.1-4.9-2.9c6.7,13.1,17.5,21.6,27.8,30.8c-16.8-5.8-29.1-17.7-41.2-29.9c6.6,13.9,17.8,23.5,30.2,32.4
			c-3.1,1.9-4.9,0.3-6.7-0.7c-12.9-7-23.9-16.3-33.3-27.5c-1.1-1.3-1.9-3.1-4.9-3.2c7.9,14.9,20,25,33,34.6c-3,2-4.8,0.4-6.6-0.5
			c-13.7-7.6-25.6-17.3-35.6-29.5c-1.1-1.4-1.9-3.3-4.7-3.8c2.1,5.5,5.3,9.5,8.5,13.4c6.9,8.5,15,15.6,23.8,21.9
			c0.8,0.6,2.5,1,1.4,2.5c-0.7,1-1.8,0.5-2.7,0.1c-1.3-0.7-2.7-1.3-4-2c-13.9-8.2-25.9-18.6-36-31.3c-1.1-1.5-1.8-3.6-4.3-3.7
			c0.4,3.1,0.4,3.1,2.4,6.2c7.9,12.2,18.2,22,29.9,30.6c1.1,0.8,3.4,1.5,2.5,3.1c-1.1,2-2.9,0.1-4.4-0.4c-0.6-0.2-1.2-0.6-1.7-1
			c-15.5-9.2-29-20.6-39.9-35c-1-1.4-1.7-3.3-4.4-3c-0.1,2.8,1.6,4.7,2.9,6.6c8.4,13.3,19.5,24,32,33.3c1.1,0.8,3.4,1.4,2.1,3.2
			c-1,1.5-2.8,0.1-4-0.6c-3.6-2.1-7.2-4.2-10.6-6.5c-13-9-24.4-19.5-32.6-33.3c-0.8-1.3-1.7-3.6-3.4-2.7c-2,1-0.2,3,0.3,4.4
			c2.3,6.3,6,11.8,10.5,16.9c10.9,12.2,24.3,21.2,38.7,28.8c44.9,23.7,93.5,36,143.1,45.1c38.4,7,77.1,10.8,116.1,12.5
			c9.3,0.4,18.6,0.1,27.9,0.1c-13.3-1.7-26.6-2.4-39.9-3.4c-13.5-1-26.9-2.1-40.3-3.7c-13.4-1.5-26.8-3.4-40-5.7
			c-13-2.2-26.1-4.3-38.6-8.9c45.7,6.7,91.5,11,137.7,11.5c-43.3-3.6-86.5-7.9-128.7-19.4c21.2,2.7,42.4,5.3,63.7,7.2
			c21.2,1.9,42.4,3.2,63.7,2.9c-39.8-3.5-79.4-7.6-118.2-17.7c38.8,5,77.6,9.1,116.8,8.7c-36.4-3.5-72.8-7.3-108.4-16.4
			c35.4,4.4,70.7,7.6,106.4,7.3c-33-3.2-65.9-6.6-98-14.8c10.9,0.5,21.7,1.9,32.5,3c10.9,1.1,21.9,2.1,32.9,2.8
			c10.8,0.6,21.5,1.6,32.4,0.3c-30.1-3.3-60.3-6-89.7-13.5c9.8,0.3,19.5,1.5,29.2,2.4c9.8,0.9,19.6,1.5,29.4,2.2
			c9.6,0.6,19.1,1,28.7,0.2c-26.7-2.8-53.3-5.7-79.4-12.3c6.5,0,12.8,0.8,19.2,1.4c6.6,0.6,13.3,1.2,19.9,1.6c6.5,0.4,13,0.8,19.4,1
			c6.4,0.2,12.8,0.8,19.1-0.5c-23.1-2.4-46.1-4.8-68.7-10.3c22.6,1.6,45.2,3.4,67.9,2.2c-20.6-2.6-41.3-4-61.5-9.2
			c20,0.9,40,3.2,60.9,2.7c-1.6-2.1-2.9-1.6-4-1.6c-18.3-0.6-36.5-2.5-54.5-6.2c-24.8-5.2-48.1-13.4-66.8-31.4
			c-0.6-0.6-1.3-1-2.3-0.1c2.2,5.8,8.1,8.5,11.2,13.6c-8.4-3.2-15.3-8.7-22.5-13.8c3.3,7,9.6,11.3,14.4,17.1
			c-9.8-3.4-17.8-9.7-26.1-15.7c4,8.2,11.3,13,17.5,19.1c-12-3-21.2-10.9-31-17.9c5,8.8,12.9,14.6,20.4,20.7
			c-13.4-3.7-23.9-11.9-34.4-20.5c4.5,10.4,13.3,16.7,21.6,23.7c-14.1-4.1-24.5-13.7-35.3-23c0.7,3.9,2.8,6.6,5,9.3
			c4.6,5.8,10.1,10.5,16.2,14.8c0.8,0.5,2.1,1,1.6,2.1c-0.6,1.6-2,0.6-3,0.2c-1.4-0.6-2.7-1.2-4-2c-9.7-5.1-18-11.9-25.6-19.8
			C137,509.3,136.1,507.3,133.8,507.2z M351,526.3c4,0,8,0,12,0c22.4-0.3,44.5-2.3,65.7-10.3c7.7-2.9,15-6.6,20.3-13.1
			c4.8-5.8,5-11.3,0.4-17.2c-6.1-7.9-14.8-12.3-23.8-15.9c-3.6-1.5-5.8,0.7-5,4.7c1.1,5.5,2.6,11,4,16.5c1.4,5.4-0.3,7.2-5.8,5.7
			c-13.1-3.5-23.5-10.9-30.3-22.7c-2-3.5-4.6-5.2-8.6-5.8c-12.1-1.8-23.7-5.3-34.1-12c-3-1.9-6.4-3-9.9-3c-9.3,0-18.6-0.1-27.9,0.5
			c-11.7,0.7-11.8,1-8.9,12.6c1,4.2-0.9,4.5-3.8,3.6c-4.2-1.2-8.8-2.6-11.3-6c-5.9-7.9-12.9-6.2-20.4-3.9c-3.8,1.2-7.7,2-11.5,3.2
			c-5.7,1.9-11.3,4-16.1,7.8c-8.5,6.5-9.7,15.4-3.3,24c2.3,3.1,5.2,5.6,8.4,7.8c7.1,5,15,8.5,23.2,11.2
			C292.5,523.2,321.6,525.3,351,526.3z M583.7,123.8c-0.1,7.8,2.2,10.3,8.9,10.4c2.7,0,5.3-0.3,8-0.4c4.7-0.2,5.8,1.3,3.6,5.5
			c-1.4,2.8-1.8,4.7,2.2,5.1c0.9,0.1,2,0.8,2.4,1.5c1.8,3.5,4.9,4.6,8.5,5.4c1.8,0.4,3.6,1.7,5.2,2.9c4.6,3.4,7,2.8,8.5-2.8
			c2.1-7.4,3-15,3.1-22.7c0.4-19.8-2.7-39.5-0.9-59.4c0.6-6.8,1.4-13.6,2.1-20.4c0.2-2,0.5-4.2-1.6-5.4c-2.2-1.2-3.8,0.5-5.3,1.8
			c-2,1.7-4,3.6-5.8,5.5c-15.8,17.5-27.4,37.6-36,59.4C584.8,115.1,583.9,120,583.7,123.8z M110.9,434.8
			c25.9-5.7,51.9-10.2,78.3-12.5c-12.1,4.1-24.5,7-36.4,11.8c16.3-2.8,32.5-6.4,49.1-7.6c-11.3,4.1-23,6.6-34.1,11.3
			c15-2.5,29.8-6,45-6.8c-10,3.7-20.4,6.2-30.1,10.6c13.8-2.6,27.3-6.2,41.3-7c-8.9,3.6-18.2,5.7-26.7,10.2
			c12.3-2.4,24.4-5.4,36.9-6.1c-8.7,4-17.8,6.7-26.2,11.3c12.4-2.6,24.5-6.3,37.2-7.3c-7.5,3.8-15.5,6.2-22.4,10.9
			c10.4-2.6,20.4-6.5,31.3-7c-6,3.2-12.2,5.6-17.4,10c8.7-2.9,17.5-5.4,26.4-7.3c2.4-0.5,6.1,0,6.6-2.3c0.6-2.7-1.3-5.7-3.5-7.8
			c-1.5-1.5-3.3-2.8-5.1-3.9c-9.5-5.7-18.1-12.4-25.6-20.6c-3-3.3-6.7-4.7-11.2-4.1c-27.2,3.6-54.3,8.1-81,14.6
			C132.4,427.7,121.4,430.4,110.9,434.8z M689.4,302c-1.4-0.8-2.2,0-3,0.4c-20,10.2-40.7,18.6-61.2,27.7c-2.6,1.1-7.8,1.7-6.3,5.2
			c1.2,2.8,5.7,0.2,8.5-0.8c20.6-8,40-18.5,59.2-29.6C687.5,304.3,688.9,303.8,689.4,302z M529.6,147.7
			c16.7,7.5,24.5,21.4,28.3,38.2c2.9,12.8,3.1,25.7,2.1,38.7c-0.1,1.1-1.1,2.6,1.1,3.4c0.7-4.2,1.5-8.3,1.9-12.4
			c1.3-16.6,1.2-33-7.4-48C549.6,157.3,541,150.7,529.6,147.7z M416.5,488.5c-2.1-5.9-3.6-10.5-5.4-15.2c-1-2.8-3.5-3.4-6.1-3.4
			c-2.9,0-4.2,1-2.3,3.9C406.3,479.2,410.4,483.9,416.5,488.5z M685.5,369.1c-12.3,0-24.2,1-36.1,2.2c-1.3,0.1-3.2,0.2-3.1,1.7
			c0.2,1.9,2.1,1,3.3,0.9c10.9-1,21.8-2,32.7-3C683.5,370.7,684.9,371,685.5,369.1z M291.9,462.3c-1.1-4.4-1.8-7.5-2.8-10.4
			c-1-3-3-5-5.9-6.2c-0.9-0.4-1.8-0.9-2.7,0s-0.4,1.9,0.1,2.8C283.1,453.5,286.2,458,291.9,462.3z M643,484.2
			c0.6,0.8,0.8,1.3,1.2,1.5c0.7,0.5,1.6,1.9,2,0.2C646.5,485.1,645,484.1,643,484.2z"/>
		<path class="st0" d="M254.1,328.2c8.5,1.7,16.3,4.7,23.8,8.7c9,4.8,17.3,10.5,24.9,17.4c2.8,2.6,3.8,5.1,2.7,9.2
			c-5.2,20.3,4.1,42.4,22,52.9c0.4,0.2,0.9,0.4,1.3,0.7c4.9,3.5,4.8,3.5,6.3-2.7c3.5-15,12.7-26.2,24.5-35.4
			c19.9-15.4,42.8-23.3,67.4-26.9c30.6-4.5,61.1-3.4,91.3,3.8c1,0.2,2,0.4,3,0.5c1.9,0.3,4.1,0.2,4.6-1.9c0.5-1.9-1.7-2.6-3.1-3.4
			c-0.1-0.1-0.3-0.1-0.5-0.2c-2.3-1.4-6.5-0.8-6.6-4.3c-0.1-3.6,4.1-4,6.6-5.1c20.9-9,42.2-9.8,63.8-2.8c1.6,0.5,4.3,0.6,4.2,2.7
			c-0.1,2-2.7,2.1-4.3,2.7c-46.3,17.4-93.3,32.5-141.5,43.5c-2.6,0.6-5.2,1.2-7.4,2.7c-0.9,0.7-2,1.5-1.7,2.8
			c0.3,1.3,1.5,1.6,2.7,1.9c3.5,0.8,6.9-0.2,10.3-0.9c49.7-10.7,97.8-26.5,145.2-44.8c7.3-2.8,10.8-1.9,15.8,4
			c3.1,3.7,5.4,8,7.1,12.5c2.1,5.6,1.4,6.8-4.3,7.5c-15.5,1.8-31.1,3.3-46.6,5.4c-26.9,3.6-53.6,8.2-79.7,15.8
			c-3.1,0.9-7.9,1.6-6.8,5.5c1.1,4.1,5.7,2.1,8.8,1.3c37.5-9.6,75.7-14.9,114.1-19.8c4.5-0.6,8.9-0.9,13.4-1.3
			c3.3-0.3,4.9,1.2,4.9,4.7c-0.3,20.8-9.2,37.8-23.3,52.5c-2.4,2.5-5.5,2.8-8.8,1.4c-10.7-4.6-21.6-8.7-32.6-12.4
			c-4.5-1.5-5.1-4.6-1.5-7.7c3.4-3,7-5.7,10.5-8.4c3.2-2.5,6.8-2.3,10.4-0.9c5.8,2.1,11.1,5.2,16.4,8.3c1.2,0.7,2.8,2.1,3.9,0.4
			c0.9-1.3-0.7-2.4-1.6-3.3c-13.5-14.4-30-20.5-49.6-17c-0.3,0.1-0.7,0.1-1,0.3c-1.5,0.6-3.8,0.5-3.5,2.8c0.3,1.7,2.3,1.5,3.8,1.7
			c4,0.4,8,0.8,11.9,1.4c1.5,0.2,3.8,0.1,4.1,2.1c0.3,1.7-1.6,2.3-2.8,3.2c-52.1,34.8-109.1,51.5-171.9,47.3
			c-9.2-0.6-18.1-2.6-26.7-5.9c-8.7-3.3-16.5-7.9-22.2-15.6c-1.4-1.8-3.1-4-5.8-2.5c-2.8,1.6-1.4,4.1-0.5,6.2
			c2.8,6.2,2.3,7.3-4.7,6.9c-27.6-1.8-51.4-12.9-72-30.9c-11-9.6-19.5-20.9-23.4-35.3c-0.4-1.3-1.8-3.2-0.5-4.2
			c1.8-1.3,2.7,1.2,3.9,2c1.8,1.2,3.3,2.8,5.1,4c1.4,0.9,2.9,0.9,4-0.6c0.9-1.3,0.5-2.6-0.5-3.6c-3.2-3.1-6.5-6.2-9.8-9.3
			c-1.2-1.1-2.8-2.2-3.4-3.6c-1.3-2.7-2-6.4,0.2-8.3c1.9-1.7,3.4,1.8,4.9,3c5.4,4.4,10.7,9,16.1,13.5c1.4,1.2,3.1,2,4.7,2.8
			c1.1,0.6,2.3,0.4,3.1-0.7c0.8-1.1,0.4-2.3-0.4-3.2c-1.1-1.2-2.4-2.3-3.6-3.5c-6.6-5.9-13.1-11.8-19.7-17.7
			c-3.1-2.7-3.5-5.5-1.7-9.3c4.6-9.9,11.2-18.1,20.2-24.2c2-1.3,4.3-2.6,6.4-0.7c2.4,2.2,2.8,5.5,2.2,8.3
			C260,328,255.9,325.3,254.1,328.2z M376.4,440.7c0.1,1.7,1.1,2.8,2.8,2.9c1.7,0.1,3.6-0.5,3.6-2.5c0.1-1.8-1.4-2.9-3.3-3
			C377.8,438,377,439.2,376.4,440.7z M365.7,414.2c-1.4,0.6-2.7,1.5-2.4,3.2c0.3,1.7,1.6,3.1,3.3,3.2c1.7,0.1,2.5-1.5,2.3-3.1
			C368.6,415.9,367.5,414.7,365.7,414.2z M396.6,413.3c-1.8,0.6-2.8,1.7-2.7,3.6c0.1,1.7,1.3,2.8,3,2.6c1.7-0.2,2.4-1.6,2.4-3.2
			C399.3,414.5,398.3,413.6,396.6,413.3z M420.3,441.1c-0.2-1.7-1.1-2.9-2.7-3c-1.9-0.1-2.9,1.5-3.1,3.2c-0.2,1.5,0.9,2.5,2.3,2.6
			C418.7,444,419.8,442.8,420.3,441.1z M382.8,390.9c-0.2-1.7-1.4-2.4-2.8-2.4c-1.9,0-3.2,1.2-3.1,3.1c0.1,1.3,1.2,2.5,2.7,2.4
			C381.5,394,382.4,392.6,382.8,390.9z M270.4,411.7c-0.3-1.3-1-2.6-2.9-2.4c-1.8,0.2-2.6,1.4-2.5,3.1c0,1.7,1,3,2.8,2.8
			C269.5,414.9,270.3,413.6,270.4,411.7z M296.5,427.2c-0.3-1.8-1.5-2.9-3.1-3.3c-1.8-0.4-2.2,1-2.2,2.4c0,2,1.1,3,3.1,3
			C295.5,429.2,296.4,428.7,296.5,427.2z M409.6,385.3c1.3-0.3,2.8-1,2.8-3c0-1.5-1.1-2.4-2.6-2.4c-1.9,0-3.2,1.2-3.3,2.9
			C406.5,384.2,407.7,385.1,409.6,385.3z M276.6,368c1.6-0.3,2.4-1.3,2.3-2.8c-0.1-1.7-1.1-3-2.9-2.8c-1.3,0.1-2.5,1.2-2.4,2.8
			C273.8,366.9,275,367.7,276.6,368z M279.8,401.4c1.8-0.4,2.9-1.7,3.1-3.4c0.2-1.3-0.8-2.3-2-2.3c-1.9,0-3.1,1.2-3.4,3
			C277.2,400.1,278.2,401.1,279.8,401.4z M262.1,386.9c-0.3-1.4-1-2.7-2.7-2.9c-1.6-0.2-2.4,0.9-2.6,2.3c-0.2,1.7,0.7,3,2.3,3.2
			C260.6,389.8,261.7,388.7,262.1,386.9z M297.2,385.7c-0.7-1-1.2-2.5-3-2.5c-1.6,0-2.5,1.1-2.4,2.5c0.1,1.6,1.2,2.9,2.9,2.9
			C296.1,388.6,296.9,387.4,297.2,385.7z M430.3,412.9c-1.6,0.1-3,1-3.2,2.9c-0.1,1.6,1,2.4,2.6,2.3c2-0.1,3-1.4,3.2-3.2
			C433,413.6,431.9,413,430.3,412.9z"/>
		<path class="st0" d="M267.4,293.8c0.6-36.4,7.9-68.4,23.4-98.4c4.1-8,9-15.6,15.8-21.6c4.4-3.9,9.6-6.8,15.5-4.1
			c6,2.7,7.3,8.5,7.6,14.7c0.5,11-2.7,21.4-3.9,32.2c-3.3,29.6-1.3,58.8,5.8,87.7c0.7,2.8,1,8,4.3,7.4c3.3-0.6,0.9-5.1,0.8-7.9
			c-0.2-7.1-0.6-14.3-0.9-21.5c-0.1-1.5-0.1-3.4,1.8-3.5c1.4-0.1,1.6,1.8,2,3.1c1,3.5,1.9,7.1,3.2,10.5c0.7,1.8,0.8,5.1,3.5,4.6
			c2.2-0.4,1.3-3.4,1.4-5.3c0.4-6.1,0.6-12.3,0.9-18.5c0.1-1.8,0-4.4,2.2-4.4c2,0,1.6,2.5,1.9,4c0.9,4.4,1.6,8.8,2.5,13.2
			c0.3,1.3,0.6,3,2.2,2.8c1.5-0.2,1.6-1.9,1.9-3.2c0.8-4.6,1.5-9.2,2.4-13.8c0.3-1.6,0.7-3.7,2.8-3.5c2.2,0.2,2,2.3,1.9,4
			c-0.4,7.8-0.3,15.6,0.2,23.5c0.1,1.6,0,4,2,4.1c2.1,0.1,1.8-2.4,2.1-3.9c1-5,1.9-10.1,3-15.2c0.4-1.8,1-4,3.4-3.5
			c2.4,0.4,2.1,2.6,2,4.5c-0.5,9.5-0.5,19,0.2,28.5c0.2,2.1-0.2,5,2.6,5.1c2.7,0.1,2.9-2.7,3.4-4.8c7.1-32.3,18.2-63.3,33-92.9
			c10-20,24.1-36.7,44.5-47.1c9.4-4.8,19.3-6.8,30-5.6c13.3,1.5,23,8.2,29.2,19.9c8.4,15.8,10.4,33,9.8,50.4
			c-1.4,35-13.5,66.9-28.9,97.8c-5,10-6.3,10.4-17.2,9c-14.9-2-29.8-2.7-44.8-1.1c-5,0.5-6.2-0.9-5.3-6.2
			c4.1-25.5,9.2-50.8,15.3-75.8c0.7-3.1,1.6-6.1,2.2-9.2c0.5-3-0.1-5.7-2.8-7.5c-2.6-1.7-5.2-1-7.5,0.4c-1.4,0.8-2.8,1.9-3.8,3.2
			c-6.9,9.1-12.7,18.7-16.4,29.5c-2,5.9-1.5,11.7,1.2,17.4c2.4,5,4.7,9.9,7.5,14.6c0.5,0.9,1.6,1.9,0.4,3.1c-1.1,1.1-2.2,0.6-3.2,0
			c-3-1.8-6-3.6-8.9-5.6c-4.3-2.9-6-2.4-7.2,2.8c-2.5,10.2-3.8,20.6-4.8,31.1c-0.5,5.2-2.8,8.5-7.5,10c-7.3,2.4-14.3,5.3-21.2,8.7
			c-3.6,1.8-6.3,0.3-9.2-1.8c-12.8-9.4-27.1-13.1-42.9-10.7c-0.3,0-0.7,0-1,0.1c-9.5,1.5-9.6,1.5-11.7-7.9
			c-6.4-28.4-9.1-57.2-10.6-86.1c0-0.8,0-1.7-0.1-2.5c-0.2-3-0.9-5.8-4.3-6.5c-3.3-0.6-5.3,1.5-6.8,4.1c-4.1,7.3-5.4,15.3-5.8,23.5
			c-0.4,7.2,1,13.9,5.4,19.8c2.5,3.5,5,7,7.5,10.5c0.6,0.8,1.4,1.6,0.6,2.6c-0.8,0.9-1.9,0.5-2.8,0c-1.6-0.8-3.2-1.7-4.9-2.5
			c-1.3-0.6-2.4-2.1-4-1.2c-1.9,1.1-1.7,3.2-1.5,4.9c0.6,7,1.8,13.9,3.1,20.7c0.5,2.6,2.9,5.7,0.2,8c-2.7,2.3-5.2-0.6-7.8-1.4
			c-0.2,0-0.3-0.1-0.5-0.2C271.5,330,269,323,268.7,314C268.4,306.4,267.7,298.7,267.4,293.8z"/>
		<path class="st0" d="M133.8,507.2c2.3,0.2,3.2,2.1,4.5,3.4c7.6,7.9,15.9,14.7,25.6,19.8c1.3,0.7,2.7,1.4,4,2c1,0.4,2.3,1.4,3-0.2
			c0.5-1.1-0.9-1.6-1.6-2.1c-6-4.2-11.6-9-16.2-14.8c-2.1-2.7-4.3-5.4-5-9.3c10.7,9.3,21.2,19,35.3,23c-8.2-7-17.1-13.3-21.6-23.7
			c10.4,8.6,21,16.8,34.4,20.5c-7.5-6.2-15.4-12-20.4-20.7c9.7,7,18.9,14.9,31,17.9c-6.2-6-13.5-10.9-17.5-19.1
			c8.2,6,16.2,12.3,26.1,15.7c-4.8-5.8-11.1-10.1-14.4-17.1c7.2,5.1,14.1,10.6,22.5,13.8c-3.1-5.1-9-7.9-11.2-13.6
			c1-0.9,1.6-0.5,2.3,0.1c18.7,18,42,26.3,66.8,31.4c18,3.7,36.2,5.6,54.5,6.2c1.1,0,2.3-0.5,4,1.6c-20.8,0.5-40.8-1.8-60.9-2.7
			c20.2,5.3,41,6.7,61.5,9.2c-22.7,1.3-45.3-0.5-67.9-2.2c22.6,5.5,45.6,7.9,68.7,10.3c-6.3,1.3-12.7,0.7-19.1,0.5
			c-6.5-0.2-13-0.6-19.4-1c-6.6-0.4-13.3-1-19.9-1.6c-6.4-0.6-12.7-1.4-19.2-1.4c26,6.7,52.7,9.5,79.4,12.3
			c-9.6,0.8-19.2,0.5-28.7-0.2c-9.8-0.7-19.6-1.3-29.4-2.2c-9.7-0.9-19.4-2.1-29.2-2.4c29.4,7.5,59.6,10.2,89.7,13.5
			c-10.8,1.3-21.6,0.3-32.4-0.3c-11-0.6-21.9-1.7-32.9-2.8c-10.8-1.1-21.6-2.5-32.5-3c32.2,8.2,65.1,11.6,98,14.8
			c-35.6,0.3-71-3-106.4-7.3c35.6,9.1,71.9,12.9,108.4,16.4c-39.2,0.5-78-3.7-116.8-8.7c38.8,10.1,78.4,14.2,118.2,17.7
			c-21.3,0.3-42.5-1-63.7-2.9c-21.3-1.9-42.5-4.5-63.7-7.2c42.1,11.5,85.3,15.8,128.7,19.4c-46.2-0.4-92-4.8-137.7-11.5
			c12.5,4.6,25.6,6.7,38.6,8.9c13.3,2.2,26.6,4.1,40,5.7s26.9,2.6,40.3,3.7c13.3,1,26.6,1.7,39.9,3.4c-9.3,0-18.6,0.3-27.9-0.1
			c-39-1.7-77.7-5.5-116.1-12.5C177.6,599,129,586.7,84,563c-14.3-7.6-27.8-16.5-38.7-28.8c-4.5-5-8.1-10.5-10.5-16.9
			c-0.5-1.4-2.3-3.4-0.3-4.4c1.8-0.9,2.7,1.4,3.4,2.7c8.2,13.7,19.6,24.3,32.6,33.3c3.4,2.4,7,4.4,10.6,6.5c1.2,0.7,2.9,2.1,4,0.6
			c1.2-1.8-1.1-2.4-2.1-3.2c-12.5-9.4-23.6-20-32-33.3c-1.3-2-3-3.9-2.9-6.6c2.6-0.2,3.3,1.7,4.4,3c10.9,14.4,24.4,25.8,39.9,35
			c0.6,0.3,1.1,0.7,1.7,1c1.4,0.5,3.2,2.4,4.4,0.4c0.9-1.7-1.4-2.3-2.5-3.1c-11.6-8.6-22-18.4-29.9-30.6c-2-3.1-2-3.1-2.4-6.2
			c2.5,0,3.1,2.2,4.3,3.7c10,12.7,22,23.1,36,31.3c1.3,0.8,2.7,1.4,4,2c0.9,0.5,2.1,0.9,2.7-0.1c1.1-1.5-0.6-2-1.4-2.5
			c-8.9-6.3-17-13.5-23.8-21.9c-3.2-4-6.4-7.9-8.5-13.4c2.8,0.5,3.6,2.5,4.7,3.8c10,12.1,21.9,21.8,35.6,29.5c1.8,1,3.6,2.5,6.6,0.5
			c-13-9.6-25.1-19.7-33-34.6c3,0.1,3.8,1.9,4.9,3.2c9.4,11.2,20.4,20.5,33.3,27.5c1.8,1,3.6,2.6,6.7,0.7
			c-12.4-8.9-23.6-18.5-30.2-32.4c12.2,12.2,24.5,24.1,41.2,29.9c-10.3-9.2-21.1-17.7-27.8-30.8c3-0.2,3.8,1.7,4.9,2.9
			c8.5,9,18.1,16.7,29.1,22.5c1,0.5,2.1,1.1,3.1,1.5c0.9,0.4,2.2,0.9,2.8,0c1-1.5-0.7-1.9-1.5-2.5c-8.6-5.9-16.2-12.8-22-21.5
			c-0.7-1.1-1.4-2.3-2-3.4C133.4,508.1,133.6,507.7,133.8,507.2z"/>
		<path class="st0" d="M632.5,492.9c10,9.2,11.6,15.4,9,35.2c9-5.6,8.3-19.6-1.7-36.5c4.5,1.7,10.3,9.3,12.6,16.6
			c2.3,7.3,1.1,14.3-0.9,21.5c6.2-6.1,7.9-13.5,6.4-21.7c-1.4-8.1-7-14-11.5-20.6c1.9-1,2.5,0.3,3.2,1c8.9,9.3,16.5,19.2,15.9,33.1
			c-0.3,6.9-2.8,13-6.5,18.6c-9.3,14.4-22.7,24.2-37.1,32.7c-27,15.8-56.4,25.2-86.7,32.1c-0.6,0.1-1.3,0-2.2-0.9
			c5.4-1.8,10.9-3.4,16.3-5.3c5.6-2,11.2-4.3,16.7-6.6c5.5-2.3,10.8-5,15.6-8.7c0.4-0.2,0.9-0.6,0.5-1c-0.2-0.2-0.9,0-1.3,0
			c-18.2,7.7-37.1,13.2-56.5,16.8c-0.1-0.4-0.3-0.8-0.4-1.2c5.1-1.7,10.2-3.2,15.3-5.1c5.1-1.9,10.2-3.9,15.2-6.1
			c5.2-2.3,10.2-4.8,14.8-8.2c0.5-0.4,1.8-0.7,1.1-1.5c-0.7-0.8-1.7,0-2.4,0.5c-17.4,6.7-35.1,12.2-53.6,14.6
			c14.8-5.6,30.2-9.7,43.4-18.8c0.4-0.4,1.3-1.1,1.3-1.1c-0.6-0.9-1.4-0.4-2.1-0.1c-17.5,7-35.5,12.1-54.3,14.2
			c15.5-5.3,31.3-9.9,44.8-19.9c-17,6.2-34.3,11.3-52.4,13.5c13.6-5.2,27.7-9.1,39.8-17.6c0.2-0.4,0.3-0.7,0.5-1.1
			c-0.4,0-0.9-0.1-1.3-0.1c-15.5,6.1-31.4,11-48.2,12.7c13.3-4.8,26.9-8.9,38.5-17.6c-15.9,5.3-31.8,10.2-48.6,11.7
			c12.9-4.7,26.2-8.4,37.5-16.8c-15,4.8-30,9-45.8,10.5c12-4.4,24.5-7.7,35-15.5c-14.2,4.5-28.6,8.4-43.6,9.5
			c11.1-4.1,22.7-7.1,32.5-14.5c-13.3,3.8-26.6,7.5-40.6,8.4c10.1-3.8,20.5-6.6,29.4-13.3c-12.4,3.4-24.9,6.8-37.9,7.4
			c9.2-3.6,18.9-6.1,27-12.3c-11.5,2.7-22.9,6.2-35,6.3c8.4-3.3,17.4-5.4,24.2-11.9c-10.4,2.3-20.3,6.6-31,7.2
			c-0.1-2,1.4-1.7,2.4-1.9c13-3.6,25.1-8.8,34.5-19c6.9-7.5,7.7-13.8,3-21.6c4.6,0.8,8.2,5.2,9.2,11.1c0.2,1.1-0.4,2.7,1.3,2.7
			c1.3-0.1,1.5-1.5,1.7-2.7c0.3-2,0.3-4-0.5-5.9c-0.7-1.8-1.6-3.4-3-6.2c7.4,3.9,9,9.6,9.4,16.2c4.5-5.3,2-10.2-0.6-15.1
			c5.5,0.7,7.9,4.8,9.2,16.2c4.3-3.1,4.2-7.3-0.3-16.1c5.3,0.7,7.5,4.8,9.1,18.4c4.7-7,2.5-12.8-0.9-18.9c7,2.9,9.4,7.9,9.7,18.8
			c4.6-3.1,4.4-8.2-0.5-18.3c6.1,1.2,9.2,8,8.9,19.8c4.7-3.5,4.7-7,0.3-19.5c5.5,1.6,7.5,6.3,8.7,20.7c4.7-4.3,4.7-6.8-0.1-21.1
			c6.5,3.5,7.8,6.8,9,23.4c6.2-8.6,3.2-16-1.2-23.7c7.9,3.3,10.9,11.1,9.7,23.9c5.7-3.9,5.6-10.5-0.3-23.5c7.4,1.8,11.1,11.3,9.7,26
			c4.1-4.2,4.9-8.4,4.5-13.1c-0.4-4.7-3-8.6-4.3-12.9c8.6,6.8,12.4,15.3,8.6,27c6.8-5.4,6.6-11.6,0.1-26.7
			c8.2,3.4,11.9,14.2,9.2,27.2c6.5-3.3,6.5-12.4-0.1-26.8c3.8,1.5,7.8,6.7,9.8,12.5c1.8,5.4,0.6,10.7,0.2,16.1
			c7.8-9.5,4.8-18.8-0.8-28.3c8.4,3,12.2,14.5,10.1,29.5c3.9-2.3,5.9-7.9,5.3-14.6c-0.5-5.7-3.7-10.4-5.6-15.6
			c10,8.4,14.6,18.5,9.6,31.8c4.6-2.4,6.7-8.3,6-15.3c-0.5-5.7-3.4-10.5-6.3-16.1c9.9,6.6,12.7,15.7,10.4,32.4
			c3.9-2.4,6.3-9,5.7-15.1c-0.6-5.4-2.7-10.2-5.5-14.9c0.3-0.2,0.6-0.5,0.9-0.8c9.5,8.8,11.8,18.1,8,32.2c2,0.5,2.5-1.2,3.1-2.3
			c4.7-7.8,4.1-15.8,0.4-23.8c-0.9-1.9-2-3.8-3-5.7c0.2-0.2,0.5-0.5,0.8-0.7c9.6,9.6,13.5,20.7,7.9,34.5c8.8-6.1,10-21.3,0.9-33.4
			C631.9,493.4,632.2,493.2,632.5,492.9z"/>
		<path class="st0" d="M351,526.3c-29.3-1-58.5-3-86.6-12.2c-8.2-2.7-16.1-6.2-23.2-11.2c-3.1-2.2-6-4.7-8.4-7.8
			c-6.4-8.6-5.2-17.5,3.3-24c4.8-3.7,10.4-5.9,16.1-7.8c3.8-1.2,7.7-2.1,11.5-3.2c7.5-2.3,14.5-4,20.4,3.9c2.5,3.4,7.2,4.7,11.3,6
			c2.9,0.9,4.9,0.5,3.8-3.6c-2.9-11.6-2.8-11.9,8.9-12.6c9.3-0.6,18.6-0.5,27.9-0.5c3.5,0,6.8,1.1,9.9,3c10.4,6.6,22,10.2,34.1,12
			c4,0.6,6.6,2.2,8.6,5.8c6.8,11.9,17.2,19.2,30.3,22.7c5.5,1.5,7.2-0.3,5.8-5.7c-1.4-5.5-2.8-11-4-16.5c-0.8-4,1.4-6.1,5-4.7
			c9,3.6,17.6,8,23.8,15.9c4.6,5.9,4.4,11.5-0.4,17.2c-5.4,6.5-12.7,10.2-20.3,13.1c-21.2,8-43.3,9.9-65.7,10.3
			C359,526.3,355,526.3,351,526.3z M332.4,476.7c-4.3,0.2-9,0.3-13.4,2.1c-1.6,0.7-3.3,1.3-3.3,3.3c0,1.8,1.4,3.1,2.9,3.7
			c10.1,4,20.3,4.3,30.6,0.7c1.4-0.5,2.9-1.5,3-3.1c0.1-1.8-1.5-2.8-3-3.6C344,477.2,338.4,476.9,332.4,476.7z"/>
		<path class="st0" d="M583.7,123.8c0.2-3.8,1.1-8.7,3-13.4c8.6-21.8,20.2-41.9,36-59.4c1.8-2,3.7-3.8,5.8-5.5c1.5-1.2,3-3,5.3-1.8
			c2.2,1.2,1.8,3.3,1.6,5.4c-0.7,6.8-1.5,13.6-2.1,20.4c-1.8,19.8,1.2,39.6,0.9,59.4c-0.1,7.7-1,15.3-3.1,22.7
			c-1.6,5.6-3.9,6.2-8.5,2.8c-1.6-1.2-3.3-2.5-5.2-2.9c-3.6-0.8-6.6-1.9-8.5-5.4c-0.4-0.8-1.6-1.4-2.4-1.5c-4-0.4-3.6-2.3-2.2-5.1
			c2.1-4.2,1.1-5.7-3.6-5.5c-2.7,0.1-5.3,0.5-8,0.4C585.9,134.1,583.6,131.6,583.7,123.8z"/>
		<path class="st0" d="M110.9,434.8c10.5-4.4,21.4-7,32.4-9.7c26.7-6.4,53.8-11,81-14.6c4.5-0.6,8.1,0.7,11.2,4.1
			c7.5,8.2,16.1,14.9,25.6,20.6c1.8,1.1,3.6,2.4,5.1,3.9c2.2,2.1,4.1,5.2,3.5,7.8c-0.5,2.4-4.2,1.8-6.6,2.3
			c-8.9,1.9-17.7,4.4-26.4,7.3c5.1-4.4,11.4-6.8,17.4-10c-10.9,0.5-20.9,4.5-31.3,7c7-4.7,14.9-7.2,22.4-10.9
			c-12.7,0.9-24.8,4.7-37.2,7.3c8.4-4.6,17.5-7.3,26.2-11.3c-12.5,0.8-24.6,3.7-36.9,6.1c8.5-4.5,17.8-6.5,26.7-10.2
			c-14,0.9-27.6,4.5-41.3,7c9.7-4.5,20.1-7,30.1-10.6c-15.2,0.8-30,4.4-45,6.8c11.1-4.7,22.8-7.2,34.1-11.3
			c-16.6,1.2-32.8,4.8-49.1,7.6c11.9-4.7,24.3-7.6,36.4-11.8C162.9,424.6,136.8,429.1,110.9,434.8z"/>
		<path class="st0" d="M689.4,302c-0.5,1.8-1.8,2.2-2.9,2.9c-19.1,11-38.5,21.5-59.2,29.6c-2.8,1.1-7.3,3.7-8.5,0.8
			c-1.4-3.5,3.7-4,6.3-5.2c20.5-9,41.2-17.5,61.2-27.7C687.2,302,688,301.2,689.4,302z"/>
		<path class="st0" d="M529.6,147.7c11.5,3,20.1,9.6,25.9,19.9c8.6,15.1,8.7,31.5,7.4,48c-0.3,4.1-1.2,8.2-1.9,12.4
			c-2.3-0.8-1.2-2.3-1.1-3.4c1.1-13,0.8-26-2.1-38.7C554.1,169.1,546.3,155.2,529.6,147.7z"/>
		<path class="st0" d="M416.5,488.5c-6.1-4.6-10.2-9.4-13.8-14.7c-2-2.9-0.7-3.8,2.3-3.9c2.7,0,5.1,0.6,6.1,3.4
			C412.9,478,414.4,482.7,416.5,488.5z"/>
		<path class="st0" d="M685.5,369.1c-0.6,1.9-2.1,1.7-3.2,1.8c-10.9,1.1-21.8,2.1-32.7,3c-1.2,0.1-3.1,1-3.3-0.9
			c-0.1-1.5,1.8-1.6,3.1-1.7C661.3,370,673.2,369,685.5,369.1z"/>
		<path class="st0" d="M291.9,462.3c-5.7-4.3-8.8-8.9-11.3-13.9c-0.4-0.9-0.9-1.9-0.1-2.8c0.9-0.9,1.8-0.3,2.7,0
			c2.9,1.2,5,3.3,5.9,6.2C290.1,454.9,290.8,457.9,291.9,462.3z"/>
		<path class="st0" d="M643,484.2c2,0,3.4,1,3.2,1.7c-0.4,1.7-1.4,0.3-2-0.2C643.9,485.4,643.7,485,643,484.2z"/>
		<path class="st0" d="M612.6,493.7c-0.3-0.5-1.2-1-0.5-1.5c0.5-0.4,1.2-0.1,1.4,0.8C613.2,493.2,612.9,493.4,612.6,493.7z"/>
		<path class="st0" d="M622.1,493.3c-0.9-0.3-1.2-0.9-0.6-1.7c0.5,0.3,0.9,0.7,1.4,1C622.6,492.8,622.3,493.1,622.1,493.3z"/>
		<path class="st0" d="M631.7,493.7c-0.5-0.7-1.7-1.1-0.8-2.3c0.5,0.5,1.1,1,1.6,1.6C632.2,493.2,631.9,493.4,631.7,493.7z"/>
		<path class="st1" d="M376.4,440.7c0.6-1.5,1.4-2.7,3.2-2.6c1.8,0.1,3.4,1.2,3.3,3c-0.1,2-1.9,2.6-3.6,2.5
			C377.5,443.5,376.6,442.4,376.4,440.7z"/>
		<path class="st1" d="M365.7,414.2c1.8,0.5,2.9,1.7,3.1,3.4c0.2,1.6-0.5,3.2-2.3,3.1c-1.7-0.1-3-1.5-3.3-3.2
			C363,415.7,364.3,414.8,365.7,414.2z"/>
		<path class="st1" d="M396.6,413.3c1.6,0.3,2.6,1.3,2.7,3c0,1.6-0.7,3-2.4,3.2c-1.7,0.2-2.8-0.8-3-2.6
			C393.8,415,394.8,413.8,396.6,413.3z"/>
		<path class="st1" d="M420.3,441.1c-0.5,1.8-1.6,3-3.4,2.8c-1.4-0.1-2.5-1.2-2.3-2.6c0.2-1.7,1.1-3.2,3.1-3.2
			C419.2,438.2,420.1,439.4,420.3,441.1z"/>
		<path class="st1" d="M382.8,390.9c-0.4,1.7-1.2,3.1-3.2,3.1c-1.5,0-2.6-1.1-2.7-2.4c-0.1-1.9,1.2-3.1,3.1-3.1
			C381.3,388.5,382.6,389.2,382.8,390.9z"/>
		<path class="st1" d="M270.4,411.7c-0.2,1.9-0.9,3.2-2.6,3.4c-1.8,0.2-2.7-1-2.8-2.8c0-1.7,0.8-2.9,2.5-3.1
			C269.5,409,270.1,410.3,270.4,411.7z"/>
		<path class="st1" d="M296.5,427.2c-0.1,1.5-1,2.1-2.3,2.1c-2,0-3-1.1-3.1-3c0-1.4,0.5-2.8,2.2-2.4
			C295,424.2,296.2,425.4,296.5,427.2z"/>
		<path class="st1" d="M409.6,385.3c-1.9-0.2-3.1-1.1-3-2.4c0.1-1.8,1.4-3,3.3-2.9c1.5,0,2.6,0.9,2.6,2.4
			C412.5,384.3,411,385,409.6,385.3z"/>
		<path class="st1" d="M276.6,368c-1.6-0.3-2.8-1.2-3-2.8c-0.2-1.5,1.1-2.6,2.4-2.8c1.7-0.2,2.7,1.1,2.9,2.8
			C279,366.7,278.2,367.8,276.6,368z"/>
		<path class="st1" d="M279.8,401.4c-1.6-0.3-2.6-1.3-2.3-2.7c0.3-1.8,1.5-3,3.4-3c1.2,0,2.2,1,2,2.3
			C282.6,399.7,281.6,401,279.8,401.4z"/>
		<path class="st1" d="M262.1,386.9c-0.4,1.8-1.5,2.9-3.1,2.7c-1.6-0.2-2.5-1.5-2.3-3.2c0.2-1.4,1-2.5,2.6-2.3
			C261,384.2,261.7,385.5,262.1,386.9z"/>
		<path class="st1" d="M297.2,385.7c-0.3,1.7-1.1,2.9-2.6,2.9c-1.7,0-2.8-1.3-2.9-2.9c-0.1-1.5,0.8-2.5,2.4-2.5
			C296,383.1,296.5,384.6,297.2,385.7z"/>
		<path class="st1" d="M430.3,412.9c1.6,0,2.7,0.7,2.5,2c-0.1,1.8-1.2,3.1-3.2,3.2c-1.5,0.1-2.7-0.8-2.6-2.3
			C427.3,413.9,428.7,413,430.3,412.9z"/>
		<path class="st1" d="M556.9,572.3c0.7-0.3,1.5-0.8,2.1,0.1c0,0.1-0.8,0.7-1.3,1.1C557.4,573.1,557.2,572.7,556.9,572.3z"/>
		<path class="st1" d="M568,577.7c0.7-0.6,1.7-1.4,2.4-0.5c0.7,0.8-0.6,1.1-1.1,1.5C568.8,578.4,568.4,578,568,577.7z"/>
		<path class="st1" d="M533.9,561.3c0.4,0,0.9,0.1,1.3,0.1c-0.2,0.4-0.3,0.7-0.5,1.1C534.5,562.1,534.2,561.7,533.9,561.3z"/>
		<path class="st1" d="M580.8,582.3c0.5,0,1.1-0.2,1.3,0c0.4,0.5-0.1,0.8-0.5,1C581.4,583.1,581.1,582.7,580.8,582.3z"/>
		<path class="st1" d="M332.4,476.7c6,0.1,11.6,0.5,16.8,3.2c1.5,0.8,3.1,1.7,3,3.6c-0.1,1.5-1.6,2.6-3,3.1
			c-10.3,3.5-20.5,3.3-30.6-0.7c-1.5-0.6-2.9-1.9-2.9-3.7c0-1.9,1.8-2.6,3.3-3.3C323.4,477,328.1,477,332.4,476.7z"/>
	</g>
</g>
</svg>
