<?xml version="1.0" encoding="utf-8"?>
<!-- Generator: Adobe Illustrator 26.5.0, SVG Export Plug-In . SVG Version: 6.00 Build 0)  -->
<svg version="1.1" id="Capa_1" xmlns="http://www.w3.org/2000/svg" xmlns:xlink="http://www.w3.org/1999/xlink" x="0px" y="0px"
	 viewBox="0 0 216.8 41" style="enable-background:new 0 0 216.8 41;" xml:space="preserve">
<style type="text/css">
	.st0{fill:#FFFFFF;}
	.st1{fill:#FFFFFF;stroke:#FFFFFF;stroke-width:0.25;stroke-miterlimit:10;}
</style>
<g>
	<path class="st0" d="M0.6,20.6c0-7.3,3.8-12,9.6-12c3.3,0,6,1.7,7.2,4.3h0.1V0.6h5.5v31.6h-5.3v-4h-0.1c-1.3,2.6-3.9,4.3-7.3,4.3
		C4.3,32.6,0.6,27.9,0.6,20.6z M6.1,20.6c0,4.6,2.2,7.5,5.7,7.5c3.4,0,5.7-2.9,5.7-7.5c0-4.6-2.3-7.5-5.7-7.5
		C8.3,13.1,6.1,16,6.1,20.6z"/>
	<path class="st0" d="M27.4,3c0-1.7,1.3-3,3-3c1.7,0,3,1.3,3,3c0,1.6-1.3,3-3,3C28.7,5.9,27.4,4.6,27.4,3z M27.7,9h5.5v23.2h-5.5V9z
		"/>
	<path class="st0" d="M46.7,8.5c5.5,0,9.2,2.9,9.3,7.2h-5.1c-0.2-2-1.8-3.2-4.3-3.2c-2.4,0-4,1.1-4,2.8c0,1.3,1.1,2.2,3.3,2.7L50,19
		c4.6,1.1,6.5,2.9,6.5,6.3c0,4.4-4.1,7.3-9.9,7.3c-5.8,0-9.5-2.9-9.9-7.3h5.4c0.3,2.1,2,3.3,4.7,3.3c2.6,0,4.3-1.1,4.3-2.8
		c0-1.4-0.9-2.1-3.1-2.6l-4.2-1c-4.3-1-6.5-3.2-6.5-6.6C37.3,11.4,41,8.5,46.7,8.5z"/>
	<path class="st0" d="M75.3,17.3c-0.4-2.5-2.2-4.3-5.1-4.3c-3.4,0-5.6,2.9-5.6,7.7c0,4.9,2.2,7.7,5.7,7.7c2.8,0,4.6-1.6,5.1-4.2h5.1
		c-0.4,5.2-4.4,8.6-10.3,8.6c-6.8,0-11.2-4.5-11.2-12.1c0-7.4,4.4-12.1,11.1-12.1c6.1,0,9.9,3.9,10.3,8.8L75.3,17.3L75.3,17.3z"/>
	<path class="st0" d="M108.5,33.9h5.4c0.6,1.8,2.6,3,5.2,3c3.5,0,5.6-2,5.6-4.9V28h-0.1c-1.2,2.5-3.9,4.2-7.3,4.2
		c-5.7,0-9.5-4.5-9.5-11.7c0-7.3,3.7-11.9,9.7-11.9c3.3,0,6,1.7,7.3,4.4h0.1V9h5.3v22.8c0,5.5-4.4,9.1-11.2,9.1
		C113.2,40.9,109.1,38,108.5,33.9z M124.7,20.5c0-4.5-2.3-7.4-5.7-7.4c-3.4,0-5.6,2.9-5.6,7.4c0,4.6,2.2,7.4,5.6,7.4
		C122.4,27.9,124.7,25,124.7,20.5z"/>
	<path class="st0" d="M133.6,25.6c0-4.1,3.2-6.6,8.8-6.9l6.1-0.4v-1.7c0-2.4-1.6-3.8-4.3-3.8c-2.6,0-4.2,1.2-4.6,3.2h-5.1
		c0.2-4.3,3.9-7.4,9.9-7.4c5.8,0,9.5,3,9.5,7.7v16h-5.3v-3.7h-0.1c-1.3,2.5-4.2,4.1-7.2,4.1C136.9,32.6,133.6,29.7,133.6,25.6z
		 M148.6,23.6v-1.8l-5.4,0.3c-2.6,0.2-4.1,1.4-4.1,3.2c0,1.9,1.6,3.1,3.9,3.1C146.1,28.4,148.6,26.4,148.6,23.6z"/>
	<path class="st0" d="M165.3,3.5V9h4.4v4.2h-4.4v12.1c0,1.9,0.9,2.8,2.8,2.8c0.5,0,1.2,0,1.6-0.1v4.2c-0.6,0.1-1.7,0.2-2.8,0.2
		c-5,0-7-1.8-7-6.3V13.2h-3.3V9h3.3V3.5H165.3z"/>
	<path class="st0" d="M172,20.6c0-7.5,4.5-12.1,11.2-12.1c6.8,0,11.2,4.6,11.2,12.1c0,7.5-4.4,12.1-11.2,12.1
		C176.4,32.6,172,28.1,172,20.6z M188.9,20.6c0-4.9-2.2-7.8-5.7-7.8c-3.4,0-5.7,2.8-5.7,7.8c0,4.9,2.2,7.8,5.7,7.8
		C186.7,28.3,188.9,25.5,188.9,20.6z"/>
	<path class="st0" d="M207,8.5c5.5,0,9.2,2.9,9.3,7.2h-5.1c-0.2-2-1.8-3.2-4.3-3.2c-2.4,0-4,1.1-4,2.8c0,1.3,1.1,2.2,3.3,2.7
		l4.1,0.9c4.6,1.1,6.5,2.9,6.5,6.3c0,4.4-4.1,7.3-9.9,7.3c-5.8,0-9.5-2.9-9.9-7.3h5.4c0.3,2.1,2,3.3,4.7,3.3c2.6,0,4.3-1.1,4.3-2.8
		c0-1.4-0.9-2.1-3.1-2.6l-4.2-1c-4.3-1-6.5-3.2-6.5-6.6C197.6,11.4,201.3,8.5,207,8.5z"/>
</g>
<g id="XMLID_00000019636222132117059210000012588134823941717174_">
	<g>
		<path class="st0" d="M94.1,9.4c6.4,0,11.6,5.2,11.6,11.6c0,6.4-5.2,11.6-11.6,11.6c-6.4,0-11.6-5.2-11.6-11.6
			C82.5,14.6,87.7,9.4,94.1,9.4z M104.2,21c0-5.5-4.5-10-10-10c-5.5,0-10,4.5-10,10s4.5,10,10,10C99.7,31.1,104.2,26.5,104.2,21z"/>
		<path class="st0" d="M94.1,10.3c5.9,0,10.6,4.8,10.6,10.6S100,31.6,94.1,31.6c-5.9,0-10.6-4.8-10.6-10.6S88.3,10.3,94.1,10.3z
			 M100.3,21c0-3.4-2.8-6.2-6.2-6.2s-6.2,2.8-6.2,6.2s2.8,6.2,6.2,6.2S100.3,24.4,100.3,21z"/>
		<path class="st1" d="M94.1,14.8c3.4,0,6.2,2.8,6.2,6.2s-2.8,6.2-6.2,6.2s-6.2-2.8-6.2-6.2S90.7,14.8,94.1,14.8z M98.8,21
			c0-2.6-2.1-4.6-4.6-4.6c-2.6,0-4.6,2.1-4.6,4.6c0,2.6,2.1,4.6,4.6,4.6C96.7,25.6,98.8,23.6,98.8,21z"/>
		<path class="st0" d="M94.1,19.8c0.6,0,1.2,0.5,1.2,1.2s-0.5,1.2-1.2,1.2c-0.6,0-1.2-0.5-1.2-1.2C93,20.4,93.5,19.8,94.1,19.8z"/>
	</g>
</g>
</svg>
