<?xml version="1.0" encoding="utf-8"?>
<!-- Generator: Adobe Illustrator 26.5.0, SVG Export Plug-In . SVG Version: 6.00 Build 0)  -->
<svg version="1.1" id="Capa_1" xmlns="http://www.w3.org/2000/svg" xmlns:xlink="http://www.w3.org/1999/xlink" x="0px" y="0px"
	 viewBox="0 0 224 151.8" style="enable-background:new 0 0 224 151.8;" xml:space="preserve">
<path d="M212,0H12C5.4,0,0,5.4,0,12l0,0c0,6.6,5.4,12,12,12h200c6.6,0,12-5.4,12-12l0,0C224,5.4,218.6,0,212,0z M212,64H12
	C5.4,64,0,69.4,0,76l0,0c0,6.6,5.4,12,12,12h200c6.6,0,12-5.4,12-12l0,0C224,69.4,218.6,64,212,64z"/>
<path d="M212,127.8H12c-6.6,0-12,5.4-12,12l0,0c0,6.6,5.4,12,12,12h200c6.6,0,12-5.4,12-12l0,0C224,133.1,218.6,127.8,212,127.8z"/>
</svg>
